<svg xmlns="http://www.w3.org/2000/svg" xmlns:xlink="http://www.w3.org/1999/xlink" width="500" zoomAndPan="magnify" viewBox="0 0 375 374.999991" height="500" preserveAspectRatio="xMidYMid meet" version="1.0"><defs><g/><clipPath id="27c82192d5"><path d="M 134 112 L 240.976562 112 L 240.976562 215 L 134 215 Z M 134 112 " clip-rule="nonzero"/></clipPath></defs><path fill="#1c486f" d="M 164.632812 106.628906 C 166.613281 106.628906 168.222656 105.023438 168.222656 103.042969 L 168.222656 96.089844 C 168.222656 87.101562 175.542969 79.78125 184.558594 79.78125 C 193.578125 79.78125 200.898438 87.101562 200.898438 96.089844 L 200.898438 103.042969 C 200.898438 105.023438 202.507812 106.628906 204.488281 106.628906 C 206.472656 106.628906 208.078125 105.023438 208.078125 103.042969 L 208.078125 97.066406 C 208.078125 84.519531 198.660156 73.492188 186.109375 72.660156 C 172.472656 71.769531 161.042969 82.625 161.042969 96.089844 L 161.042969 103.042969 C 161.042969 105.023438 162.648438 106.628906 164.632812 106.628906 Z M 164.632812 106.628906 " fill-opacity="1" fill-rule="nonzero"/><g clip-path="url(#27c82192d5)"><path fill="#ef8121" d="M 240.128906 199.960938 L 232.230469 123.144531 C 231.597656 117.027344 226.457031 112.402344 220.3125 112.402344 L 148.808594 112.402344 C 142.664062 112.402344 137.523438 117.054688 136.890625 123.144531 L 134.910156 142.269531 C 133.589844 155.105469 145.792969 165.125 158.113281 161.363281 L 164.804688 159.324219 C 172.414062 157 180.914062 160.847656 183.898438 169.289062 C 184.933594 172.21875 184.789062 175.4375 183.871094 178.421875 L 180.914062 188.070312 C 176.835938 201.394531 186.800781 214.863281 200.726562 214.863281 L 226.6875 214.863281 C 234.699219 214.835938 240.960938 207.914062 240.128906 199.960938 Z M 240.128906 199.960938 " fill-opacity="1" fill-rule="nonzero"/></g><path fill="#1c486f" d="M 167.332031 167.539062 L 128.648438 179.339844 C 123.019531 181.0625 122.617188 188.875 128.046875 191.171875 L 137.265625 195.050781 C 142.144531 197.117188 146.050781 200.992188 148.117188 205.902344 L 151.996094 215.121094 C 154.292969 220.550781 162.105469 220.148438 163.828125 214.519531 L 175.628906 175.835938 C 177.210938 170.753906 172.441406 165.988281 167.332031 167.539062 Z M 167.332031 167.539062 " fill-opacity="1" fill-rule="nonzero"/><g fill="#ef8121" fill-opacity="0.4"><g transform="translate(106.147831, 275.5276)"><g><path d="M 1.953125 -40.6875 L 11.671875 -40.6875 L 11.671875 -36.1875 C 12.148438 -37.78125 12.992188 -39.007812 14.203125 -39.875 C 15.410156 -40.75 16.898438 -41.1875 18.671875 -41.1875 L 18.671875 -33.078125 C 17.304688 -33.078125 15.796875 -32.878906 14.140625 -32.484375 C 12.492188 -32.097656 11.671875 -31.644531 11.671875 -31.125 L 11.671875 0 L 1.953125 0 Z M 1.953125 -40.6875 "/></g></g></g><g fill="#ef8121" fill-opacity="0.4"><g transform="translate(125.268035, 275.5276)"><g><path d="M 10.34375 0.4375 C 7.78125 0.4375 6.015625 -0.0976562 5.046875 -1.171875 C 4.085938 -2.242188 3.609375 -3.96875 3.609375 -6.34375 L 3.609375 -31.75 L 0.890625 -31.75 L 0.890625 -39.140625 L 3.609375 -39.140625 L 3.609375 -47.75 L 13.0625 -47.75 L 13.0625 -39.140625 L 15.84375 -39.140625 L 15.84375 -31.75 L 13.0625 -31.75 L 13.0625 -8.890625 C 13.0625 -8.191406 13.113281 -7.675781 13.21875 -7.34375 C 13.332031 -7.007812 13.632812 -6.84375 14.125 -6.84375 C 14.488281 -6.84375 14.835938 -6.859375 15.171875 -6.890625 C 15.503906 -6.929688 15.726562 -6.953125 15.84375 -6.953125 L 15.84375 -0.28125 C 15.289062 -0.132812 14.484375 0.0195312 13.421875 0.1875 C 12.367188 0.351562 11.34375 0.4375 10.34375 0.4375 Z M 10.34375 0.4375 "/></g></g></g><g fill="#ef8121" fill-opacity="0.4"><g transform="translate(142.220545, 275.5276)"><g><path d="M 9.953125 0.4375 C 7.578125 0.4375 5.785156 -0.125 4.578125 -1.25 C 3.378906 -2.382812 2.582031 -3.882812 2.1875 -5.75 C 1.800781 -7.625 1.609375 -10.023438 1.609375 -12.953125 L 1.71875 -31.296875 C 1.71875 -34.191406 2.445312 -36.554688 3.90625 -38.390625 C 5.375 -40.222656 7.445312 -41.140625 10.125 -41.140625 C 12.75 -41.140625 14.710938 -40.269531 16.015625 -38.53125 L 16.015625 -48.03125 L 25.734375 -48.03125 L 25.734375 0 L 16.015625 0 L 16.015625 -4.34375 C 15.453125 -2.75 14.695312 -1.550781 13.75 -0.75 C 12.8125 0.0390625 11.546875 0.4375 9.953125 0.4375 Z M 13.671875 -7.171875 C 14.640625 -7.171875 15.269531 -7.640625 15.5625 -8.578125 C 15.863281 -9.523438 16.015625 -10.796875 16.015625 -12.390625 L 16.015625 -29.40625 C 16.015625 -30.59375 15.847656 -31.59375 15.515625 -32.40625 C 15.179688 -33.226562 14.585938 -33.640625 13.734375 -33.640625 C 12.765625 -33.640625 12.125 -33.257812 11.8125 -32.5 C 11.5 -31.738281 11.34375 -30.707031 11.34375 -29.40625 L 11.34375 -12.28125 C 11.34375 -8.875 12.117188 -7.171875 13.671875 -7.171875 Z M 13.671875 -7.171875 "/></g></g></g><g fill="#ef8121" fill-opacity="0.4"><g transform="translate(169.900368, 275.5276)"><g><path d="M 13.125 0.4375 C 5.082031 0.4375 1.0625 -3.632812 1.0625 -11.78125 L 1.109375 -15.015625 L 10.84375 -15.015625 L 10.890625 -10.234375 C 10.890625 -9.265625 11.078125 -8.53125 11.453125 -8.03125 C 11.828125 -7.53125 12.4375 -7.28125 13.28125 -7.28125 C 14.582031 -7.28125 15.234375 -8.335938 15.234375 -10.453125 C 15.234375 -12.003906 14.925781 -13.222656 14.3125 -14.109375 C 13.695312 -15.003906 12.722656 -15.953125 11.390625 -16.953125 L 6.21875 -20.953125 C 4.445312 -22.328125 3.171875 -23.742188 2.390625 -25.203125 C 1.609375 -26.671875 1.21875 -28.738281 1.21875 -31.40625 C 1.21875 -33.488281 1.765625 -35.257812 2.859375 -36.71875 C 3.953125 -38.1875 5.40625 -39.289062 7.21875 -40.03125 C 9.039062 -40.769531 11.0625 -41.140625 13.28125 -41.140625 C 21.175781 -41.140625 25.125 -37.210938 25.125 -29.359375 L 25.125 -28.578125 L 15.0625 -28.578125 L 15.0625 -30.125 C 15.0625 -31.09375 14.90625 -31.921875 14.59375 -32.609375 C 14.28125 -33.296875 13.753906 -33.640625 13.015625 -33.640625 C 12.347656 -33.640625 11.835938 -33.441406 11.484375 -33.046875 C 11.128906 -32.660156 10.953125 -32.132812 10.953125 -31.46875 C 10.953125 -29.988281 11.523438 -28.835938 12.671875 -28.015625 L 18.671875 -23.625 C 20.828125 -22.03125 22.476562 -20.296875 23.625 -18.421875 C 24.769531 -16.554688 25.34375 -14.195312 25.34375 -11.34375 C 25.34375 -7.5625 24.269531 -4.648438 22.125 -2.609375 C 19.976562 -0.578125 16.976562 0.4375 13.125 0.4375 Z M 13.125 0.4375 "/></g></g></g><g fill="#ef8121" fill-opacity="1"><g transform="translate(106.147831, 275.5276)"><g><path d="M 1.953125 -40.6875 L 11.671875 -40.6875 L 11.671875 -36.1875 C 12.148438 -37.78125 12.992188 -39.007812 14.203125 -39.875 C 15.410156 -40.75 16.898438 -41.1875 18.671875 -41.1875 L 18.671875 -33.078125 C 17.304688 -33.078125 15.796875 -32.878906 14.140625 -32.484375 C 12.492188 -32.097656 11.671875 -31.644531 11.671875 -31.125 L 11.671875 0 L 1.953125 0 Z M 1.953125 -40.6875 "/></g></g></g><g fill="#ef8121" fill-opacity="1"><g transform="translate(125.268035, 275.5276)"><g><path d="M 10.34375 0.4375 C 7.78125 0.4375 6.015625 -0.0976562 5.046875 -1.171875 C 4.085938 -2.242188 3.609375 -3.96875 3.609375 -6.34375 L 3.609375 -31.75 L 0.890625 -31.75 L 0.890625 -39.140625 L 3.609375 -39.140625 L 3.609375 -47.75 L 13.0625 -47.75 L 13.0625 -39.140625 L 15.84375 -39.140625 L 15.84375 -31.75 L 13.0625 -31.75 L 13.0625 -8.890625 C 13.0625 -8.191406 13.113281 -7.675781 13.21875 -7.34375 C 13.332031 -7.007812 13.632812 -6.84375 14.125 -6.84375 C 14.488281 -6.84375 14.835938 -6.859375 15.171875 -6.890625 C 15.503906 -6.929688 15.726562 -6.953125 15.84375 -6.953125 L 15.84375 -0.28125 C 15.289062 -0.132812 14.484375 0.0195312 13.421875 0.1875 C 12.367188 0.351562 11.34375 0.4375 10.34375 0.4375 Z M 10.34375 0.4375 "/></g></g></g><g fill="#ef8121" fill-opacity="1"><g transform="translate(142.220545, 275.5276)"><g><path d="M 9.953125 0.4375 C 7.578125 0.4375 5.785156 -0.125 4.578125 -1.25 C 3.378906 -2.382812 2.582031 -3.882812 2.1875 -5.75 C 1.800781 -7.625 1.609375 -10.023438 1.609375 -12.953125 L 1.71875 -31.296875 C 1.71875 -34.191406 2.445312 -36.554688 3.90625 -38.390625 C 5.375 -40.222656 7.445312 -41.140625 10.125 -41.140625 C 12.75 -41.140625 14.710938 -40.269531 16.015625 -38.53125 L 16.015625 -48.03125 L 25.734375 -48.03125 L 25.734375 0 L 16.015625 0 L 16.015625 -4.34375 C 15.453125 -2.75 14.695312 -1.550781 13.75 -0.75 C 12.8125 0.0390625 11.546875 0.4375 9.953125 0.4375 Z M 13.671875 -7.171875 C 14.640625 -7.171875 15.269531 -7.640625 15.5625 -8.578125 C 15.863281 -9.523438 16.015625 -10.796875 16.015625 -12.390625 L 16.015625 -29.40625 C 16.015625 -30.59375 15.847656 -31.59375 15.515625 -32.40625 C 15.179688 -33.226562 14.585938 -33.640625 13.734375 -33.640625 C 12.765625 -33.640625 12.125 -33.257812 11.8125 -32.5 C 11.5 -31.738281 11.34375 -30.707031 11.34375 -29.40625 L 11.34375 -12.28125 C 11.34375 -8.875 12.117188 -7.171875 13.671875 -7.171875 Z M 13.671875 -7.171875 "/></g></g></g><g fill="#ef8121" fill-opacity="1"><g transform="translate(169.900368, 275.5276)"><g><path d="M 13.125 0.4375 C 5.082031 0.4375 1.0625 -3.632812 1.0625 -11.78125 L 1.109375 -15.015625 L 10.84375 -15.015625 L 10.890625 -10.234375 C 10.890625 -9.265625 11.078125 -8.53125 11.453125 -8.03125 C 11.828125 -7.53125 12.4375 -7.28125 13.28125 -7.28125 C 14.582031 -7.28125 15.234375 -8.335938 15.234375 -10.453125 C 15.234375 -12.003906 14.925781 -13.222656 14.3125 -14.109375 C 13.695312 -15.003906 12.722656 -15.953125 11.390625 -16.953125 L 6.21875 -20.953125 C 4.445312 -22.328125 3.171875 -23.742188 2.390625 -25.203125 C 1.609375 -26.671875 1.21875 -28.738281 1.21875 -31.40625 C 1.21875 -33.488281 1.765625 -35.257812 2.859375 -36.71875 C 3.953125 -38.1875 5.40625 -39.289062 7.21875 -40.03125 C 9.039062 -40.769531 11.0625 -41.140625 13.28125 -41.140625 C 21.175781 -41.140625 25.125 -37.210938 25.125 -29.359375 L 25.125 -28.578125 L 15.0625 -28.578125 L 15.0625 -30.125 C 15.0625 -31.09375 14.90625 -31.921875 14.59375 -32.609375 C 14.28125 -33.296875 13.753906 -33.640625 13.015625 -33.640625 C 12.347656 -33.640625 11.835938 -33.441406 11.484375 -33.046875 C 11.128906 -32.660156 10.953125 -32.132812 10.953125 -31.46875 C 10.953125 -29.988281 11.523438 -28.835938 12.671875 -28.015625 L 18.671875 -23.625 C 20.828125 -22.03125 22.476562 -20.296875 23.625 -18.421875 C 24.769531 -16.554688 25.34375 -14.195312 25.34375 -11.34375 C 25.34375 -7.5625 24.269531 -4.648438 22.125 -2.609375 C 19.976562 -0.578125 16.976562 0.4375 13.125 0.4375 Z M 13.125 0.4375 "/></g></g></g><g fill="#1c486f" fill-opacity="1"><g transform="translate(205.550163, 275.5276)"><g><path d="M 13.453125 0.4375 C 9.117188 0.4375 5.988281 -0.632812 4.0625 -2.78125 C 2.132812 -4.925781 1.171875 -8.390625 1.171875 -13.171875 L 1.171875 -17.84375 L 10.5625 -17.84375 L 10.5625 -11.890625 C 10.5625 -9.523438 11.320312 -8.34375 12.84375 -8.34375 C 13.695312 -8.34375 14.289062 -8.59375 14.625 -9.09375 C 14.957031 -9.59375 15.125 -10.4375 15.125 -11.625 C 15.125 -13.175781 14.9375 -14.460938 14.5625 -15.484375 C 14.195312 -16.503906 13.722656 -17.351562 13.140625 -18.03125 C 12.566406 -18.71875 11.539062 -19.785156 10.0625 -21.234375 L 5.953125 -25.34375 C 2.765625 -28.457031 1.171875 -31.90625 1.171875 -35.6875 C 1.171875 -39.769531 2.101562 -42.875 3.96875 -45 C 5.84375 -47.132812 8.578125 -48.203125 12.171875 -48.203125 C 16.472656 -48.203125 19.566406 -47.0625 21.453125 -44.78125 C 23.347656 -42.5 24.296875 -38.929688 24.296875 -34.078125 L 14.5625 -34.078125 L 14.515625 -37.359375 C 14.515625 -37.984375 14.335938 -38.484375 13.984375 -38.859375 C 13.628906 -39.234375 13.140625 -39.421875 12.515625 -39.421875 C 11.765625 -39.421875 11.203125 -39.210938 10.828125 -38.796875 C 10.460938 -38.390625 10.28125 -37.835938 10.28125 -37.140625 C 10.28125 -35.578125 11.171875 -33.960938 12.953125 -32.296875 L 18.515625 -26.96875 C 19.804688 -25.707031 20.878906 -24.507812 21.734375 -23.375 C 22.585938 -22.25 23.273438 -20.914062 23.796875 -19.375 C 24.316406 -17.832031 24.578125 -16.003906 24.578125 -13.890625 C 24.578125 -9.191406 23.710938 -5.628906 21.984375 -3.203125 C 20.265625 -0.773438 17.421875 0.4375 13.453125 0.4375 Z M 13.453125 0.4375 "/></g></g></g><g fill="#1c486f" fill-opacity="1"><g transform="translate(231.17346, 275.5276)"><g><path d="M 1.953125 -48.03125 L 11.953125 -48.03125 L 11.953125 -36.6875 C 12.992188 -39.65625 14.976562 -41.140625 17.90625 -41.140625 C 20.644531 -41.140625 22.71875 -40.265625 24.125 -38.515625 C 25.53125 -36.773438 26.234375 -34.390625 26.234375 -31.359375 L 26.234375 0 L 16.515625 0 L 16.515625 -30.75 C 16.515625 -31.632812 16.304688 -32.351562 15.890625 -32.90625 C 15.484375 -33.46875 14.894531 -33.75 14.125 -33.75 C 13.457031 -33.75 12.925781 -33.457031 12.53125 -32.875 C 12.144531 -32.300781 11.953125 -31.609375 11.953125 -30.796875 L 11.953125 0 L 1.953125 0 Z M 1.953125 -48.03125 "/></g></g></g><g fill="#1c486f" fill-opacity="1"><g transform="translate(259.242359, 275.5276)"><g><path d="M 13.78125 0.4375 C 5.664062 0.4375 1.609375 -3.765625 1.609375 -12.171875 L 1.609375 -28.515625 C 1.609375 -32.367188 2.691406 -35.4375 4.859375 -37.71875 C 7.023438 -40 10 -41.140625 13.78125 -41.140625 C 17.5625 -41.140625 20.535156 -40 22.703125 -37.71875 C 24.878906 -35.4375 25.96875 -32.367188 25.96875 -28.515625 L 25.96875 -12.171875 C 25.96875 -3.765625 21.90625 0.4375 13.78125 0.4375 Z M 13.78125 -7.0625 C 14.5625 -7.0625 15.132812 -7.335938 15.5 -7.890625 C 15.875 -8.453125 16.0625 -9.210938 16.0625 -10.171875 L 16.0625 -30.078125 C 16.0625 -32.453125 15.300781 -33.640625 13.78125 -33.640625 C 12.269531 -33.640625 11.515625 -32.453125 11.515625 -30.078125 L 11.515625 -10.171875 C 11.515625 -9.210938 11.695312 -8.453125 12.0625 -7.890625 C 12.4375 -7.335938 13.007812 -7.0625 13.78125 -7.0625 Z M 13.78125 -7.0625 "/></g></g></g><g fill="#1c486f" fill-opacity="1"><g transform="translate(286.866609, 275.5276)"><g><path d="M 1.953125 -40.6875 L 11.84375 -40.6875 L 11.84375 -38.53125 C 13.25 -40.269531 15.191406 -41.140625 17.671875 -41.140625 C 20.828125 -41.140625 23.023438 -40.082031 24.265625 -37.96875 C 25.503906 -35.851562 26.125 -32.925781 26.125 -29.1875 L 26.125 -14.125 C 26.125 -10.9375 25.9375 -8.332031 25.5625 -6.3125 C 25.195312 -4.289062 24.382812 -2.660156 23.125 -1.421875 C 21.863281 -0.179688 19.957031 0.4375 17.40625 0.4375 C 14.957031 0.4375 13.101562 -0.242188 11.84375 -1.609375 L 11.84375 8.109375 L 1.953125 8.109375 Z M 14.171875 -7.109375 C 15.066406 -7.109375 15.640625 -7.515625 15.890625 -8.328125 C 16.148438 -9.148438 16.28125 -10.335938 16.28125 -11.890625 L 16.28125 -29.1875 C 16.28125 -30.59375 16.148438 -31.664062 15.890625 -32.40625 C 15.640625 -33.144531 15.050781 -33.515625 14.125 -33.515625 C 12.601562 -33.515625 11.84375 -32.109375 11.84375 -29.296875 L 11.84375 -11.453125 C 11.84375 -10.078125 12 -9.007812 12.3125 -8.25 C 12.625 -7.488281 13.242188 -7.109375 14.171875 -7.109375 Z M 14.171875 -7.109375 "/></g></g></g><g fill="#424141" fill-opacity="1"><g transform="translate(136.74715, 299.313964)"><g><path d="M 1.421875 0 L 1.421875 -9.796875 L 7.375 -9.796875 L 7.375 -8.65625 L 2.65625 -8.65625 L 2.65625 -5.5625 L 7.03125 -5.5625 L 7.03125 -4.421875 L 2.65625 -4.421875 L 2.65625 -1.140625 L 7.53125 -1.140625 L 7.53125 0 Z M 1.421875 0 "/></g></g></g><g fill="#424141" fill-opacity="1"><g transform="translate(145.184444, 299.313964)"><g><path d="M 1.078125 -3 L 1.078125 -4.109375 L 5.34375 -4.109375 L 5.34375 -3 Z M 1.078125 -3 "/></g></g></g><g fill="#424141" fill-opacity="1"><g transform="translate(151.606856, 299.313964)"><g><path d="M 5.765625 0.1875 C 5.046875 0.1875 4.382812 0.0625 3.78125 -0.1875 C 3.175781 -0.445312 2.648438 -0.800781 2.203125 -1.25 C 1.765625 -1.707031 1.421875 -2.242188 1.171875 -2.859375 C 0.929688 -3.484375 0.8125 -4.164062 0.8125 -4.90625 C 0.8125 -5.632812 0.929688 -6.3125 1.171875 -6.9375 C 1.421875 -7.5625 1.765625 -8.097656 2.203125 -8.546875 C 2.648438 -8.992188 3.175781 -9.34375 3.78125 -9.59375 C 4.382812 -9.851562 5.046875 -9.984375 5.765625 -9.984375 C 6.546875 -9.984375 7.257812 -9.835938 7.90625 -9.546875 C 8.550781 -9.265625 9.101562 -8.859375 9.5625 -8.328125 C 10.03125 -7.804688 10.367188 -7.1875 10.578125 -6.46875 L 9.265625 -6.46875 C 9.015625 -7.175781 8.578125 -7.734375 7.953125 -8.140625 C 7.335938 -8.546875 6.625 -8.75 5.8125 -8.75 C 5.082031 -8.75 4.4375 -8.582031 3.875 -8.25 C 3.3125 -7.925781 2.867188 -7.472656 2.546875 -6.890625 C 2.234375 -6.316406 2.078125 -5.65625 2.078125 -4.90625 C 2.078125 -4.144531 2.234375 -3.472656 2.546875 -2.890625 C 2.867188 -2.316406 3.3125 -1.863281 3.875 -1.53125 C 4.4375 -1.207031 5.082031 -1.046875 5.8125 -1.046875 C 6.644531 -1.046875 7.378906 -1.257812 8.015625 -1.6875 C 8.660156 -2.125 9.109375 -2.707031 9.359375 -3.4375 L 10.671875 -3.4375 C 10.472656 -2.71875 10.132812 -2.085938 9.65625 -1.546875 C 9.1875 -1.003906 8.617188 -0.578125 7.953125 -0.265625 C 7.285156 0.0351562 6.554688 0.1875 5.765625 0.1875 Z M 5.765625 0.1875 "/></g></g></g><g fill="#424141" fill-opacity="1"><g transform="translate(163.024488, 299.313964)"><g><path d="M 5.875 0.1875 C 4.882812 0.1875 4.003906 -0.03125 3.234375 -0.46875 C 2.472656 -0.90625 1.878906 -1.503906 1.453125 -2.265625 C 1.023438 -3.035156 0.8125 -3.914062 0.8125 -4.90625 C 0.8125 -5.894531 1.023438 -6.769531 1.453125 -7.53125 C 1.878906 -8.300781 2.472656 -8.898438 3.234375 -9.328125 C 4.003906 -9.765625 4.882812 -9.984375 5.875 -9.984375 C 6.875 -9.984375 7.753906 -9.765625 8.515625 -9.328125 C 9.273438 -8.898438 9.875 -8.300781 10.3125 -7.53125 C 10.75 -6.769531 10.96875 -5.894531 10.96875 -4.90625 C 10.96875 -3.914062 10.75 -3.035156 10.3125 -2.265625 C 9.875 -1.503906 9.273438 -0.90625 8.515625 -0.46875 C 7.753906 -0.03125 6.875 0.1875 5.875 0.1875 Z M 2.078125 -4.90625 C 2.078125 -4.144531 2.234375 -3.472656 2.546875 -2.890625 C 2.867188 -2.316406 3.316406 -1.863281 3.890625 -1.53125 C 4.472656 -1.207031 5.132812 -1.046875 5.875 -1.046875 C 6.632812 -1.046875 7.296875 -1.207031 7.859375 -1.53125 C 8.429688 -1.863281 8.878906 -2.316406 9.203125 -2.890625 C 9.523438 -3.472656 9.6875 -4.144531 9.6875 -4.90625 C 9.6875 -5.664062 9.523438 -6.332031 9.203125 -6.90625 C 8.878906 -7.476562 8.429688 -7.925781 7.859375 -8.25 C 7.296875 -8.582031 6.632812 -8.75 5.875 -8.75 C 5.132812 -8.75 4.472656 -8.582031 3.890625 -8.25 C 3.316406 -7.925781 2.867188 -7.476562 2.546875 -6.90625 C 2.234375 -6.332031 2.078125 -5.664062 2.078125 -4.90625 Z M 2.078125 -4.90625 "/></g></g></g><g fill="#424141" fill-opacity="1"><g transform="translate(174.777925, 299.313964)"><g><path d="M 1.421875 0 L 1.421875 -9.796875 L 2.578125 -9.796875 L 6.421875 -3.984375 L 10.25 -9.796875 L 11.390625 -9.796875 L 11.390625 0 L 10.15625 0 L 10.15625 -7.484375 L 6.921875 -2.609375 L 5.90625 -2.609375 L 2.65625 -7.5 L 2.65625 0 Z M 1.421875 0 "/></g></g></g><g fill="#424141" fill-opacity="1"><g transform="translate(187.594769, 299.313964)"><g><path d="M 1.421875 0 L 1.421875 -9.796875 L 2.578125 -9.796875 L 6.421875 -3.984375 L 10.25 -9.796875 L 11.390625 -9.796875 L 11.390625 0 L 10.15625 0 L 10.15625 -7.484375 L 6.921875 -2.609375 L 5.90625 -2.609375 L 2.65625 -7.5 L 2.65625 0 Z M 1.421875 0 "/></g></g></g><g fill="#424141" fill-opacity="1"><g transform="translate(200.411613, 299.313964)"><g><path d="M 1.421875 0 L 1.421875 -9.796875 L 7.375 -9.796875 L 7.375 -8.65625 L 2.65625 -8.65625 L 2.65625 -5.5625 L 7.03125 -5.5625 L 7.03125 -4.421875 L 2.65625 -4.421875 L 2.65625 -1.140625 L 7.53125 -1.140625 L 7.53125 0 Z M 1.421875 0 "/></g></g></g><g fill="#424141" fill-opacity="1"><g transform="translate(208.848907, 299.313964)"><g><path d="M 1.421875 0 L 1.421875 -9.796875 L 5.171875 -9.796875 C 5.847656 -9.796875 6.4375 -9.664062 6.9375 -9.40625 C 7.445312 -9.15625 7.84375 -8.796875 8.125 -8.328125 C 8.40625 -7.859375 8.546875 -7.300781 8.546875 -6.65625 C 8.546875 -5.851562 8.335938 -5.191406 7.921875 -4.671875 C 7.515625 -4.160156 6.953125 -3.816406 6.234375 -3.640625 L 8.6875 0 L 7.203125 0 L 4.8125 -3.515625 L 2.65625 -3.515625 L 2.65625 0 Z M 2.65625 -4.6875 L 5.03125 -4.6875 C 5.75 -4.6875 6.300781 -4.859375 6.6875 -5.203125 C 7.082031 -5.546875 7.28125 -6.03125 7.28125 -6.65625 C 7.28125 -7.28125 7.082031 -7.765625 6.6875 -8.109375 C 6.300781 -8.453125 5.75 -8.625 5.03125 -8.625 L 2.65625 -8.625 Z M 2.65625 -4.6875 "/></g></g></g><g fill="#424141" fill-opacity="1"><g transform="translate(218.377589, 299.313964)"><g><path d="M 5.765625 0.1875 C 5.046875 0.1875 4.382812 0.0625 3.78125 -0.1875 C 3.175781 -0.445312 2.648438 -0.800781 2.203125 -1.25 C 1.765625 -1.707031 1.421875 -2.242188 1.171875 -2.859375 C 0.929688 -3.484375 0.8125 -4.164062 0.8125 -4.90625 C 0.8125 -5.632812 0.929688 -6.3125 1.171875 -6.9375 C 1.421875 -7.5625 1.765625 -8.097656 2.203125 -8.546875 C 2.648438 -8.992188 3.175781 -9.34375 3.78125 -9.59375 C 4.382812 -9.851562 5.046875 -9.984375 5.765625 -9.984375 C 6.546875 -9.984375 7.257812 -9.835938 7.90625 -9.546875 C 8.550781 -9.265625 9.101562 -8.859375 9.5625 -8.328125 C 10.03125 -7.804688 10.367188 -7.1875 10.578125 -6.46875 L 9.265625 -6.46875 C 9.015625 -7.175781 8.578125 -7.734375 7.953125 -8.140625 C 7.335938 -8.546875 6.625 -8.75 5.8125 -8.75 C 5.082031 -8.75 4.4375 -8.582031 3.875 -8.25 C 3.3125 -7.925781 2.867188 -7.472656 2.546875 -6.890625 C 2.234375 -6.316406 2.078125 -5.65625 2.078125 -4.90625 C 2.078125 -4.144531 2.234375 -3.472656 2.546875 -2.890625 C 2.867188 -2.316406 3.3125 -1.863281 3.875 -1.53125 C 4.4375 -1.207031 5.082031 -1.046875 5.8125 -1.046875 C 6.644531 -1.046875 7.378906 -1.257812 8.015625 -1.6875 C 8.660156 -2.125 9.109375 -2.707031 9.359375 -3.4375 L 10.671875 -3.4375 C 10.472656 -2.71875 10.132812 -2.085938 9.65625 -1.546875 C 9.1875 -1.003906 8.617188 -0.578125 7.953125 -0.265625 C 7.285156 0.0351562 6.554688 0.1875 5.765625 0.1875 Z M 5.765625 0.1875 "/></g></g></g><g fill="#424141" fill-opacity="1"><g transform="translate(229.795221, 299.313964)"><g><path d="M 1.421875 0 L 1.421875 -9.796875 L 7.375 -9.796875 L 7.375 -8.65625 L 2.65625 -8.65625 L 2.65625 -5.5625 L 7.03125 -5.5625 L 7.03125 -4.421875 L 2.65625 -4.421875 L 2.65625 -1.140625 L 7.53125 -1.140625 L 7.53125 0 Z M 1.421875 0 "/></g></g></g></svg>